# xmcd
#
# Track frame offsets:
#	150
#	13302
#	24006
#	33321
#	48833
#	60531
#	71257
#	82197
#
# Disc length: 1286 seconds
#
# Revision: 0
# Processed by: cddbd v1.5.1PL0 Copyright (c) Steve Scherf et al.
# Submitted via: EasyCDDAExtractor 8.0.1.1
#
DISCID=5a050408
DTITLE=Charley Pride - The Best Of Charley Pride, Vol- 2
DYEAR=1972
DGENRE=Country
TTITLE0=A Place For The Lonesome
TTITLE1=Is Anyone Going To San Antone
TTITLE2=Kiss An Angel Good Morning
TTITLE3=Let Me Live
TTITLE4=( There's Still ) Someone I Can't Forget
TTITLE5=I'm Just Me
TTITLE6=You Don't Belong ( In My World )
TTITLE7=I'm So Afraid Of Losing You Again
EXTD=
EXTT0=
EXTT1=
EXTT2=
EXTT3=
EXTT4=
EXTT5=
EXTT6=
EXTT7=
PLAYORDER=
